<svg width="165" height="165" viewBox="0 0 165 165" fill="none" xmlns="http://www.w3.org/2000/svg">
<rect width="165" height="165" rx="80" fill="black"/>
<path d="M121.68 125.94H42.8999C41.9569 125.948 41.0357 125.656 40.2697 125.106C39.5038 124.556 38.933 123.776 38.6399 122.88L19.4999 64.5C19.2066 63.6605 19.1759 62.7516 19.4117 61.8942C19.6474 61.0368 20.1386 60.2715 20.8199 59.7C21.4928 59.1096 22.3283 58.7365 23.217 58.6294C24.1057 58.5223 25.0061 58.6864 25.7999 59.1L60.7199 76.5L78.7199 41.58C79.1349 40.8838 79.7235 40.3074 80.4282 39.907C81.1329 39.5067 81.9294 39.2962 82.7399 39.2962C83.5503 39.2962 84.3469 39.5067 85.0516 39.907C85.7563 40.3074 86.3449 40.8838 86.7599 41.58L104.76 76.56L139.74 59.16C140.525 58.7514 141.415 58.59 142.293 58.6971C143.171 58.8042 143.996 59.1748 144.66 59.76C145.234 60.3895 145.618 61.1691 145.767 62.0082C145.916 62.8474 145.823 63.7115 145.5 64.5L125.94 122.82C125.657 123.728 125.091 124.52 124.324 125.082C123.557 125.644 122.63 125.944 121.68 125.94V125.94ZM46.4999 116.94H118.5L133.56 72L104.34 86.52C103.817 86.7877 103.245 86.9489 102.659 86.9941C102.073 87.0394 101.484 86.9678 100.926 86.7837C100.368 86.5995 99.852 86.3063 99.4081 85.9212C98.9641 85.536 98.601 85.0665 98.3399 84.54L82.4999 53.46L66.7199 84.54C66.4588 85.0665 66.0957 85.536 65.6517 85.9212C65.2077 86.3063 64.6917 86.5995 64.1336 86.7837C63.5755 86.9678 62.9863 87.0394 62.4003 86.9941C61.8143 86.9489 61.2431 86.7877 60.7199 86.52L31.3799 71.82L46.4999 116.94Z" fill="white"/>
<path d="M82.4999 98.82C81.3113 98.8045 80.1757 98.3254 79.3351 97.4848C78.4946 96.6442 78.0155 95.5086 77.9999 94.32C77.992 93.7319 78.1009 93.1481 78.3205 92.6025C78.5401 92.0568 78.8659 91.5603 79.279 91.1416C79.692 90.7229 80.1842 90.3905 80.7268 90.1636C81.2695 89.9367 81.8518 89.8199 82.4399 89.82V89.82C83.6334 89.82 84.778 90.2941 85.6219 91.138C86.4658 91.9819 86.9399 93.1265 86.9399 94.32C86.9399 95.5135 86.4658 96.6581 85.6219 97.502C84.778 98.3459 83.6334 98.82 82.4399 98.82H82.4999Z" fill="white"/>
</svg>
