<svg width="480" height="564" viewBox="0 0 480 564" fill="none" xmlns="http://www.w3.org/2000/svg">
<path fill-rule="evenodd" clip-rule="evenodd" d="M127.23 122.03C34.3833 120.834 -22.7347 189.015 8.68264 260.781C40.1 332.55 71.4204 348.697 120.739 400.729C170.081 452.761 241.83 542.769 241.491 564C241.127 542.769 309.921 452.761 359.263 400.729C408.582 348.697 439.878 332.55 471.319 260.781C502.737 189.014 445.594 120.834 352.772 122.03C289.041 122.852 260.361 164.815 248.661 191.05L248.661 156.714C248.661 156.714 269.008 32.8584 412.603 19.3L435.493 19.3L435.493 -3.8786e-05L44.4843 -4.60294e-06L44.4843 19.3L67.3994 19.3C210.97 32.8584 231.341 156.714 231.341 156.714L231.341 186.542C217.558 160.278 187.425 122.806 127.23 122.03Z" fill="#1A1919"/>
</svg>
