<svg width="165" height="165" viewBox="0 0 165 165" fill="none" xmlns="http://www.w3.org/2000/svg">
<rect width="165" height="165" rx="80" fill="black"/>
<path d="M80.2503 114.8C79.2582 114.788 78.3089 114.394 77.6003 113.7L49.1003 85.15C48.4749 84.4676 48.1279 83.5756 48.1279 82.65C48.1279 81.7244 48.4749 80.8324 49.1003 80.15L91.0503 37.5C91.7529 36.7965 92.7061 36.4009 93.7003 36.4V36.4H122.45C123.432 36.4 124.373 36.7898 125.067 37.4837C125.76 38.1776 126.15 39.1187 126.15 40.1L126.5 68.5C126.502 69.5094 126.107 70.479 125.4 71.2L82.8503 113.75C82.1412 114.406 81.2162 114.78 80.2503 114.8ZM57.0003 82.5L80.2503 105.7L119 66.95L118.75 43.85H95.3003L57.0003 82.5Z" fill="white"/>
<path d="M94.2502 128.75C93.7563 128.761 93.2654 128.669 92.8091 128.48C92.3528 128.29 91.9411 128.008 91.6002 127.65L35.1002 71.2C34.4378 70.4891 34.0772 69.5489 34.0943 68.5774C34.1115 67.6059 34.505 66.679 35.1921 65.9919C35.8792 65.3048 36.8061 64.9113 37.7776 64.8941C38.7491 64.877 39.6893 65.2376 40.4002 65.9L96.9002 122.5C97.6025 123.203 97.9969 124.156 97.9969 125.15C97.9969 126.144 97.6025 127.097 96.9002 127.8C96.1766 128.453 95.2242 128.795 94.2502 128.75V128.75Z" fill="white"/>
<path d="M55.0003 128.45C54.0819 128.434 53.1978 128.098 52.5003 127.5L35.2503 110.25C34.8945 109.887 34.6141 109.457 34.4253 108.985C34.2365 108.513 34.143 108.008 34.1503 107.5C34.1503 105.45 34.1503 105.4 54.7503 85.4C55.4534 84.6977 56.4065 84.3033 57.4003 84.3033C58.3941 84.3033 59.3472 84.6977 60.0503 85.4C60.7526 86.1031 61.147 87.0562 61.147 88.05C61.147 89.0438 60.7526 89.9969 60.0503 90.7C53.6003 97.05 46.6003 103.95 43.1003 107.5L55.0003 119.4L71.8003 102.5C72.145 102.146 72.5571 101.865 73.0122 101.673C73.4674 101.481 73.9563 101.382 74.4503 101.382C74.9443 101.382 75.4332 101.481 75.8884 101.673C76.3435 101.865 76.7556 102.146 77.1003 102.5C77.8026 103.203 78.197 104.156 78.197 105.15C78.197 106.144 77.8026 107.097 77.1003 107.8L57.5003 127.5C56.8073 128.105 55.9204 128.442 55.0003 128.45V128.45Z" fill="white"/>
</svg>
